<?xml version="1.0" encoding="utf-8"?>
<!-- Svg Vector Icons : http://www.onlinewebfonts.com/icon -->
<!DOCTYPE svg PUBLIC "-//W3C//DTD SVG 1.1//EN" "http://www.w3.org/Graphics/SVG/1.1/DTD/svg11.dtd">
<svg version="1.1" xmlns="http://www.w3.org/2000/svg" xmlns:xlink="http://www.w3.org/1999/xlink" x="0px" y="0px" viewBox="0 0 1000 1000" enable-background="new 0 0 1000 1000" xml:space="preserve">
<metadata> Svg Vector Icons : http://www.onlinewebfonts.com/icon </metadata>
<g><path d="M927.5,268.5c38.8,68.9,60.3,148.6,60.3,232.6c0,269.2-219.7,488.9-488.9,488.9C229.7,990,10,770.3,10,501.1C10,231.8,229.7,12.2,498.9,12.2c77.5,0,150.8,17.2,215.4,49.5l-58.2,58.2C602.3,94,563.5,87.5,498.9,87.5c-228.3,0-413.5,185.2-413.5,413.5c0,228.3,185.2,413.5,413.5,413.5s413.5-185.2,413.5-413.5c0-75.4-10.8-118.5-45.2-178.8L927.5,268.5z M990,98.3L901.7,10L350.3,561.4l88.3,88.3L990,98.3z M328.8,589.4v88.3h90.5L328.8,589.4z"/></g>
</svg>